# Blender v2.78 (sub 0) OBJ File: ''
# www.blender.org
mtllib Gem.mtl
o Cone
v -0.000000 -1.000000 -1.000000
v 0.866025 -1.000000 -0.500000
v 0.866025 -1.000000 0.500000
v -0.000000 -1.000000 1.000000
v 0.000000 1.000000 0.000000
v -0.866025 -1.000000 0.500000
v -0.866025 -1.000000 -0.500000
v 0.000000 -3.000000 -0.000000
vn 0.4588 0.3974 -0.7947
vn 0.9177 0.3974 0.0000
vn 0.4588 0.3974 0.7947
vn -0.4588 0.3974 0.7947
vn -0.9177 0.3974 0.0000
vn -0.4588 0.3974 -0.7947
vn 0.4588 -0.3974 0.7947
vn 0.9177 -0.3974 0.0000
vn 0.4588 -0.3974 -0.7947
vn -0.4588 -0.3974 -0.7947
vn -0.9177 -0.3974 0.0000
vn -0.4588 -0.3974 0.7947
usemtl None
s off
f 1//1 5//1 2//1
f 2//2 5//2 3//2
f 3//3 5//3 4//3
f 4//4 5//4 6//4
f 6//5 5//5 7//5
f 7//6 5//6 1//6
f 4//7 8//7 3//7
f 3//8 8//8 2//8
f 2//9 8//9 1//9
f 1//10 8//10 7//10
f 7//11 8//11 6//11
f 6//12 8//12 4//12
